01 Noord-Amerika
02 Afrika
03 Europa
04 Zuid-Amerika
05 Azië en Australie
06 Achter de schermen van

Voor liefhebbers van eerder uitgezonden documantaires Planet Earth, Life en Frozen Planet is Earthflight een absolute aanrader! Kies voor een schitterend schouwspel en geniet van de schitterende natuur in de lucht!

01 North America, 02 Africa, 03 Europe, 04 South America, 05 Asia and Australia, 06 Behind the scenes,
Take to the skies with Earthflight as it soars with the true masters of the air on a breathtaking journey across six vast continents. On the wings of birds, it experiences the world’s greatest sights and natural spectacles as never before.
To create its bird’s-eye view of the world Earthflight uses a host of extraordinary filming techniques including filming “imprinted” flocks from microlites, wild flocks filmed from model gliders and silent drones, full-sized helicopter with stabilised mounts and cameras on the backs of trained birds.
The last programme in the series will explain many of the techniques used to make Earthflight and the extraordinary relationships between people and birds that made it possible fly on the wings of birds.
 
http://www.imdb.com/title/tt2346091	OAHGpaaEn

------------------------ Dutch Friends ------------------------
---------------------------------------------------------------
- Bezoek ook eens mijn vrienden op:  http://www.Film-Test.nl --
----- voor mijn Nederlandse Sync. ondertitels ---- en meer ----
------- http://www.Film-Test.nl ---- Over Films en meer -------
---------------------------------------------------------------

General:

Complete name                    : Earth Flight 1 North America.avi
Format                           : AVI
Format/Info                      : Audio Video Interleave
File size                        : 802 MiB
Duration                         : 52mn 5s
Overall bit rate                 : 2 154 Kbps

Video:

Format                           : MPEG-4 Visual
Format profile                   : Simple@L3
Format settings, BVOP            : No
Format settings, QPel            : No
Format settings, GMC             : No warppoints
Format settings, Matrix          : Default (H.263)
Codec ID                         : XVID
Codec ID/Hint                    : XviD
Duration                         : 52mn 5s
Bit rate                         : 1 695 Kbps
Width                            : 704 pixels
Height                           : 396 pixels
Display aspect ratio             : 16:9
Frame rate                       : 25.000 fps
Color space                      : YUV
Chroma subsampling               : 4:2:0
Bit depth                        : 8 bits
Scan type                        : Progressive
Compression mode                 : Lossy
Bits/(Pixel*Frame)               : 0.243
Stream size                      : 631 MiB (79%)
Writing library                  : XviD 1.1.2 (UTC 2006-11-01)

Audio:

Format                           : AC-3
Format/Info                      : Audio Coding 3
Mode extension                   : CM (complete main)
Codec ID                         : 2000
Duration                         : 52mn 4s
Bit rate mode                    : Constant
Bit rate                         : 448 Kbps
Channel(s)                       : 6 channels
Channel positions                : Front: L C R, Side: L R, LFE
Sampling rate                    : 48.0 KHz
Bit depth                        : 16 bits
Compression mode                 : Lossy
Stream size                      : 167 MiB (21%)
Alignment                        : Aligned on interleaves
Interleave, duration             : 32 ms (0.80 video frame)
Interleave, preload duration     : 160 ms